<?xml version="1.0" encoding="iso-8859-1"?>
<!-- Generator: Adobe Illustrator 19.0.0, SVG Export Plug-In . SVG Version: 6.00 Build 0)  -->
<svg version="1.1" id="Layer_1" xmlns="http://www.w3.org/2000/svg" xmlns:xlink="http://www.w3.org/1999/xlink" x="0px" y="0px"
	 viewBox="0 0 502.664 502.664" style="enable-background:new 0 0 502.664 502.664;" xml:space="preserve" width="100%" height="100%">
<g transform="translate(1 1)">
	<path style="fill:#FFA800;" d="M216.593,492.836l24.717-24.717c47.669-7.062,44.138-7.062,105.931-68.855l75.034-75.034
		c12.359-12.359,15.007-34.428,3.531-46.786c-12.359-12.359-34.428-8.828-46.786,3.531l-24.717,24.717l56.497-56.497
		c12.359-12.359,15.007-34.428,3.531-46.786c-12.359-12.359-34.428-8.828-46.786,3.531l-44.138,43.255l68.855-68.855
		c12.359-12.359,15.007-34.428,3.531-46.786c-12.359-12.359-34.428-8.828-46.786,3.531l-62.676,62.676L423.158,62.05
		c11.476-11.476,15.007-34.428,2.648-46.786c-12.359-12.359-34.428-8.828-46.786,3.531L204.234,193.581
		c17.655-17.655,37.076-67.09,37.076-99.752c0-27.366-47.669-57.379-56.497-6.179c-6.179,35.31-39.724,89.159-62.676,112.11
		c-55.614,55.614-30.897,118.29-30.897,118.29l-24.717,24.717"/>
	<path style="fill:#FFE100;" d="M202.468,477.83l26.483-26.483c47.669-7.062,44.138-7.062,105.931-68.855l75.034-75.034
		c12.359-12.359,15.007-34.428,3.531-46.786c-11.476-12.359-34.428-8.828-46.786,3.531l-26.483,24.717l74.152-47.669
		c12.359-12.359,15.007-34.428,3.531-46.786c-12.359-12.359-34.428-8.828-46.786,3.531l-44.138,43.255l68.855-68.855
		c12.359-12.359,15.007-34.428,3.531-46.786c-11.476-12.359-34.428-8.828-46.786,3.531l-62.676,62.676L426.689,54.988
		c12.359-12.359,6.179-25.6-5.297-37.959s-28.248-11.476-40.607,0L208.648,185.636c17.655-17.655,37.076-67.09,37.076-99.752
		c0-18.538-49.434-48.552-56.497-6.179c-6.179,35.31-39.724,89.159-62.676,112.11C71.82,247.43,95.655,318.933,95.655,318.933
		l-24.717,27.366"/>
	<path d="M195.406,386.023c-2.648,0-4.414-0.883-6.179-2.648l-17.655-17.655c-3.531-3.531-3.531-8.828,0-12.359
		c3.531-3.531,8.828-3.531,12.359,0l17.655,17.655c3.531,3.531,3.531,8.828,0,12.359C199.82,385.14,198.055,386.023,195.406,386.023
		z"/>
	<path d="M177.751,421.333c-2.648,0-4.414-0.883-6.179-2.648l-35.31-35.31c-3.531-3.531-3.531-8.828,0-12.359s8.828-3.531,12.359,0
		l35.31,35.31c3.531,3.531,3.531,8.828,0,12.359C182.165,420.45,180.399,421.333,177.751,421.333z"/>
	<path d="M67.406,352.478c-2.648,0-4.414-0.883-6.179-2.648c-3.531-3.531-3.531-8.828,0-12.359l21.186-22.069
		c-5.297-17.655-15.007-72.386,35.31-122.703c23.834-23.834,54.731-75.917,60.028-107.697c5.297-34.428,27.366-35.31,34.428-34.428
		c20.303,1.766,39.724,22.069,39.724,42.372c0,15.89-3.531,33.545-9.71,51.2l65.324-65.324c3.531-3.531,8.828-3.531,12.359,0
		c3.531,3.531,3.531,8.828,0,12.359L210.413,199.761l0,0c-3.531,3.531-8.828,3.531-12.359,0c-3.531-3.531-3.531-8.828,0-12.359l0,0
		c15.007-15.007,34.428-62.676,34.428-93.572c0-10.593-12.359-23.834-22.952-24.717c-9.71-0.883-14.124,10.593-15.007,20.303
		c-6.179,38.841-42.372,94.455-65.324,117.407c-50.317,49.434-30.014,105.931-29.131,108.579c1.766,2.648,0.883,7.062-1.766,8.828
		l-24.717,24.717C71.82,351.595,69.172,352.478,67.406,352.478z"/>
	<path d="M216.593,501.664c-2.648,0-4.414-0.883-6.179-2.648c-3.531-3.531-3.531-8.828,0-12.359l24.717-24.717
		c1.766-1.766,3.531-1.766,5.297-2.648c40.607-6.179,40.607-6.179,88.276-52.966l87.393-87.393
		c8.828-8.828,11.476-25.6,3.531-34.428c-5.297-5.297-12.359-5.297-16.772-5.297c-6.179,0.883-12.359,3.531-16.772,7.062l-25.6,25.6
		c-3.531,3.531-8.828,3.531-12.359,0c-3.531-3.531-3.531-8.828,0-12.359l24.717-24.717c0.883-0.883,0.883-0.883,1.766-1.766
		l30.014-30.014c8.828-8.828,11.476-25.6,3.531-34.428c-8.828-8.828-25.6-5.297-34.428,3.531l-44.138,43.255
		c-3.531,3.531-8.828,3.531-12.359,0s-3.531-8.828,0-12.359l68.855-68.855c8.828-8.828,11.476-25.6,3.531-34.428
		c-5.297-5.297-12.359-5.297-16.772-5.297c-6.179,0.883-13.241,3.531-17.655,7.945l-62.676,62.676
		c-3.531,3.531-8.828,3.531-12.359,0c-3.531-3.531-3.531-8.828,0-12.359l62.676-62.676c0,0,0,0,0.883-0.883l74.152-74.152
		c4.414-4.414,7.062-11.476,7.945-17.655c0-3.531,0-11.476-5.297-16.772c-8.828-8.828-25.6-5.297-34.428,3.531L363.13,47.043
		c-3.531,3.531-8.828,3.531-12.359,0c-3.531-3.531-3.531-8.828,0-12.359l22.952-22.952c14.124-14.124,42.372-18.538,58.262-2.648
		c7.062,7.062,11.476,18.538,9.71,30.014c0,11.476-5.297,22.069-12.359,29.131l-49.434,49.434c7.945,0.883,15.89,4.414,21.186,9.71
		c15.89,15.89,11.476,44.138-2.648,59.145c7.945,0.883,15.89,4.414,21.186,9.71c15.89,15.89,11.476,45.021-3.531,59.145
		l-5.297,5.297c7.945,0.883,15.89,4.414,21.186,9.71c15.89,15.89,11.476,44.138-3.531,59.145l-87.393,87.393
		c-48.552,48.552-51.2,51.2-95.338,58.262l-22.952,22.952C221.006,500.781,219.241,501.664,216.593,501.664z"/>
	<path d="M342.827,64.699c0-5.297-3.531-8.828-8.828-8.828c-5.297,0-8.828,3.531-8.828,8.828s3.531,8.828,8.828,8.828
		C339.296,73.526,342.827,69.995,342.827,64.699"/>
</g>
<g>
</g>
<g>
</g>
<g>
</g>
<g>
</g>
<g>
</g>
<g>
</g>
<g>
</g>
<g>
</g>
<g>
</g>
<g>
</g>
<g>
</g>
<g>
</g>
<g>
</g>
<g>
</g>
<g>
</g>
</svg>
